<svg id="Layer_1" data-name="Layer 1" xmlns="http://www.w3.org/2000/svg" viewBox="0 0 101 100"><defs><style>.cls-1{fill:#231e1a;}</style></defs><title>high-return-antique-inspect-appraise</title><path class="cls-1" d="M57.4,62.62C47,69.09,36.21,75.78,23.08,75.78a39.28,39.28,0,0,1-5.45-.38,2.74,2.74,0,0,1-2.22-1.86L10.6,58.81,8.88,53.53a36.17,36.17,0,0,1-6.3-.33L13.23,85.79C42.57,89.91,59.77,56.88,89.11,61L85.65,50.43C75.46,51.4,66.66,56.86,57.4,62.62Z"/><path class="cls-1" d="M61.92,49.52C51.5,56,40.73,62.68,27.61,62.68a39.32,39.32,0,0,1-5.45-.38,2.74,2.74,0,0,1-2.22-1.86L14.48,43.74l-1.08-3.3a36.2,36.2,0,0,1-6-.34L18,72.69C47.35,76.81,64.56,43.78,93.89,47.9L90.43,37.31C80.14,38.21,71.27,43.71,61.92,49.52Z"/><path class="cls-1" d="M98.42,34.8,87.77,2.21C58.43-1.91,41.23,31.12,11.89,27L22.54,59.58C51.88,63.71,69.08,30.68,98.42,34.8ZM48.65,20.89l2.55-1.26,1.13,2.29a10.46,10.46,0,0,1,4.2-1l.7,3.32a9.64,9.64,0,0,0-4.19,1c-1.69.84-1.88,1.84-1.52,2.57s1.61,1,4.23.69c3.64-.44,5.6.38,6.76,2.72s.48,5.11-2.25,7.11l1.31,2.66L59,42.2,57.8,39.73a11.69,11.69,0,0,1-5,1.07l-.73-3.43a10.26,10.26,0,0,0,4.89-1c1.48-.73,2.22-1.81,1.7-2.85s-1.63-1.2-3.88-.9c-3.25.44-5.79.08-7-2.45-1.13-2.29-.41-4.89,2.11-6.81Z"/></svg>