<svg id="Layer_1" data-name="Layer 1" xmlns="http://www.w3.org/2000/svg" viewBox="0 0 80.89 79.27"><defs><style>.cls-1{fill:#231e1a;}</style></defs><title>hughes-estate-liquidation-sale-service</title><path class="cls-1" d="M80.86,26.2,74.14,2a2.47,2.47,0,0,0-2.35-2H10.54A2.47,2.47,0,0,0,8.18,2L0,26.2a1.68,1.68,0,0,0,1.71,2H26.81l9.31-9.58a6,6,0,0,1,8.65,0l9.32,9.58H79.15A1.68,1.68,0,0,0,80.86,26.2Z"/><path class="cls-1" d="M76.36,32.27h-24L41.86,21.46h0a2,2,0,0,0-2.83,0h0L28.52,32.27h-24v42h-2v5h31.6V63.35c0-3.09,2.81-5.6,6.28-5.6s6.28,2.51,6.28,5.6V79.27H78.23v-5H76.36ZM23.83,70.43H10.09V67.58h1.72V56.42H22.1V67.58h1.72Zm0-20.1H10.09V47.48h1.72V36.32H22.1V47.48h1.72Zm33.24-2.85h1.72V36.32H69.08V47.48H70.8v2.85H57.07Zm-9.76,2.85H33.58V47.48H35.3V36.32H45.59V47.48h1.72ZM73.52,73.72H49.57V70.87H73.52Zm0-5.69H49.57V65.19H73.52Zm0-5.69H49.57v-.81a2,2,0,0,1,2-2H71.49a2,2,0,0,1,2,2Z"/></svg>