<svg id="Layer_1" data-name="Layer 1" xmlns="http://www.w3.org/2000/svg" viewBox="0 0 101 100"><defs><style>.cls-1{fill:#231e1a;}.cls-2{fill:#fff;}.cls-3{fill:#03a378;}.cls-4{fill:#dfdfdf;}.cls-5{fill:#b0b0a7;}</style></defs><title>icon-standard</title><path class="cls-1" d="M24.95,20a40.76,40.76,0,0,0-4.66,56.67l3.35-2.91,8.76-7.62a24.95,24.95,0,0,1,18.26-41V10A39,39,0,0,0,24.95,20Z"/><polygon class="cls-2" points="32.4 66.11 23.63 73.73 23.63 73.73 32.4 66.11 32.4 66.11"/><path class="cls-3" d="M61.23,85.42,57.79,74.19a25,25,0,0,1-24-6.6L25,75.22,21.6,78.15A39.81,39.81,0,0,0,51.37,91.47,41.55,41.55,0,0,0,62.6,89.91Z"/><polygon class="cls-4" points="24.97 75.22 21.59 78.15 21.6 78.15 24.97 75.22 24.97 75.22"/><polygon class="cls-4" points="33.74 67.59 33.74 67.59 24.97 75.22 24.97 75.22 33.74 67.59"/><path class="cls-2" d="M57.79,74.19l3.44,11.24h0L57.81,74.18Z"/><path class="cls-5" d="M52.66,10V25.1a25,25,0,0,1,7,48.5l3.44,11.25,1.37,4.48A40,40,0,0,0,92.37,50.7,40.76,40.76,0,0,0,52.66,10Z"/><polygon class="cls-2" points="59.7 73.6 63.14 84.85 63.14 84.85 59.7 73.6 59.7 73.6"/></svg>