<svg id="Layer_1" data-name="Layer 1" xmlns="http://www.w3.org/2000/svg" viewBox="0 0 393.2 229.05"><defs><style>.cls-1{fill:#02a377;}</style></defs><title>Hughes-estate-sales-los-angeles</title><path class="cls-1" d="M182.8,101.52h7.06v2.11h-4.77v1.94h4.51v2.11h-4.51v2.11h5v2.11H182.8Z"/><path class="cls-1" d="M198.94,104.06a2.22,2.22,0,0,0-1.66-.69c-.65,0-1.54.29-1.54,1.07,0,1.89,4.79.67,4.79,4.31,0,2.32-1.86,3.42-4,3.42a4.93,4.93,0,0,1-3.49-1.31l1.63-1.79a2.55,2.55,0,0,0,2,1c.75,0,1.59-.35,1.59-1.09,0-1.91-4.87-.88-4.87-4.34,0-2.22,1.92-3.38,4-3.38a4.7,4.7,0,0,1,3.19,1.09Z"/><path class="cls-1" d="M206.07,103.55h-3v-2h8.22v2h-3v8.37h-2.29Z"/><path class="cls-1" d="M216.39,101.52h1.89l4.52,10.39h-2.58l-.9-2.2h-4l-.87,2.2H211.9Zm.88,3L216,107.78h2.54Z"/><path class="cls-1" d="M226.35,103.55h-3v-2h8.22v2h-3v8.37h-2.29Z"/><path class="cls-1" d="M234.69,101.52h7.06v2.11H237v1.94h4.51v2.11H237v2.11h5v2.11h-7.32Z"/><path class="cls-1" d="M257,104.06a2.22,2.22,0,0,0-1.66-.69c-.65,0-1.54.29-1.54,1.07,0,1.89,4.79.67,4.79,4.31,0,2.32-1.86,3.42-4,3.42a4.93,4.93,0,0,1-3.49-1.31l1.63-1.79a2.55,2.55,0,0,0,2,1c.75,0,1.59-.35,1.59-1.09,0-1.91-4.87-.88-4.87-4.34,0-2.22,1.92-3.38,4-3.38a4.7,4.7,0,0,1,3.19,1.09Z"/><path class="cls-1" d="M265.55,101.52h1.89L272,111.91h-2.58l-.9-2.2h-4l-.87,2.2h-2.52Zm.88,3-1.26,3.23h2.54Z"/><path class="cls-1" d="M274.93,101.52h2.29v8.28h4.24v2.11h-6.53Z"/><path class="cls-1" d="M284.65,101.52h7.06v2.11h-4.77v1.94h4.51v2.11h-4.51v2.11h5v2.11h-7.32Z"/><path class="cls-1" d="M300.78,104.06a2.22,2.22,0,0,0-1.66-.69c-.65,0-1.54.29-1.54,1.07,0,1.89,4.79.67,4.79,4.31,0,2.32-1.86,3.42-4,3.42a4.93,4.93,0,0,1-3.49-1.31l1.63-1.79a2.55,2.55,0,0,0,2,1c.75,0,1.59-.35,1.59-1.09,0-1.91-4.87-.88-4.87-4.34,0-2.22,1.92-3.38,4-3.38a4.7,4.7,0,0,1,3.19,1.09Z"/><path class="cls-1" d="M330.26,61.53c-1.57,1.66-3.41,3.59-6.4,6.37a74.28,74.28,0,0,1-11.43,8.84,23.48,23.48,0,0,0,.88-6.92c-.1-5.84-2.14-21.53,1-35.16l-9.93-3.41c-3.7,8.18-10,20.26-14.22,27.47C282.91,71.09,272.68,79,263,79c-12.37,0-7.6-13.25-7.6-13.25,14.32,1.75,22.5-1.85,27.18-11.88,5.84-12.47-.49-20.45-10.52-20.45C257,33.39,246.82,50.47,244,64c-5.76,8.8-11.6,15-15.44,15-1.56,0-4.09-1.07.49-12.47l5.55-13.64c2-5.07,3.12-8.86,3.12-11.69,0-5-3.41-7.79-8.38-7.79-7.69,0-14.22,6.43-14.22,6.43l10.49-26h-12L195.07,59.73C188.31,71.16,180.89,77.55,172,82.09l19.29-47.43h-12l-2.73,6.62c-.78-4-4.77-7.89-10.62-7.89-11.13,0-19,14-22.9,26.32C136.43,70.8,129.6,79,125.06,79c-2.34,0-3.7-2.24.39-12.47L138.3,34.66h-12L116,60.37c-4.48,8.28-10.42,17.43-15.58,17.43-1.95,0-3.31-1.56.68-11.3L114,34.66H102L90.48,63C83.37,80.73,89,86.48,96.81,86.48c5.75,0,10.52-3.7,14.81-8.57.49,6,4.58,8.57,9.74,8.57,6.78,0,13.14-5.06,18.81-12.25,0,.22,0,.45,0,.66,0,6.33,3.41,11.59,9.74,11.59,6.82,0,11.1-6.72,11.1-6.72l-2.82,7.11C156,88.13,150.38,90.37,147,92c-5.26,2.44-10.62,6.53-10.91,12.66-.19,5.55,3.6,9.84,10.72,9.84,10.32,0,15.49-8.77,19.38-18,1.27-3,2.63-6.43,2.63-6.43,5.88-2.8,12.38-6,18.81-11.88l-2.84,7h12l14.12-34.87c4.28-4.87,9-7.11,11.49-7.11,1.56,0,2.73.78,2.73,2.14s-1.56,5.36-3.41,9.84l-3,7.69c-7,17.24-2.53,23.57,6.14,23.57,6.89,0,13.1-4.73,18.77-11.88,1.3,7.68,6.9,11.88,16.55,11.88,16.66,0,28-12.76,34.58-24.45h0c2.24-4,5-9.15,7.5-14.12-.2,6.72.39,13.64.39,18.31,0,9.25-2,11.88-5.65,11.88a5.81,5.81,0,0,1-4.68-2.24l-6.43,4c.39,1,4.68,6.62,14.42,6.62,12.15,0,20.79-7.39,26.77-16.08A36,36,0,0,0,331.52,62C332,60.84,331.17,60.56,330.26,61.53Zm-58.84-18.4c3.31,0,3.41,2.73,1.07,7.89s-5.84,9.84-15,8.28C257.49,59.3,263.33,43.13,271.41,43.13Zm-126.2,63.6a2.54,2.54,0,0,1-2.82-2.53c0-2.24,2.34-4.09,4.58-5.45a75.33,75.33,0,0,1,8-3.9C151.55,104,147.75,106.64,145.22,106.73Zm20.46-38.38s-5.16,8.38-10.71,8.38c-2.14,0-3.21-1.27-3.21-3.9,0-7.21,8.08-29.42,16.75-29.42,4.68,0,4.68,6.43,4.68,6.43Z"/><path class="cls-1" d="M79.47,83.67C77,80.76,71.6,75.49,71.6,75.49l25-61.72H84.51l-23,56.78c-4.29-2.24-9.93-5.46-13.73-7.6L67.4,13.77H55.78L38,57.89A40.94,40.94,0,0,0,21,53.8C8,53.8,0,62,0,72.4c0,9.25,7.4,16.85,18.8,16.85,12.76,0,20.06-8.38,25.32-18.12,4.48,2.34,9.64,5.26,14.22,7.4L51.14,96.36l8.38,8.86,8.57-21.47s6.44,3.56,9.39,5.29c2.42,1.42,5.75,3.53,7.23,4.49.63.4,1.33-.13.8-1.14A56.7,56.7,0,0,0,79.47,83.67ZM19.09,79.51c-5.16,0-9-3.31-9-7.7s3.51-8.67,10.81-8.67c4.29,0,8.86,1.46,13.34,3.31C30.1,75.42,24.64,79.51,19.09,79.51Z"/><path class="cls-1" d="M342.31,36l9.12-14.64h4V36h3.37V39h-3.37v1.53c0,1.8.31,2.94,1.33,3.13l1.21.2V46h-9.31V43.81l1.1-.2c1-.2,1.29-1.33,1.29-3.13V39h-8.77Zm8.77,0V27.33L345.68,36Z"/><path class="cls-1" d="M360,33.59c0-7.63,3.44-12.48,8.34-12.48s8.34,4.77,8.34,12.48-2.62,12.68-8.34,12.68S360,41.26,360,33.59Zm8.34,10.18c2.35,0,2.82-3.17,2.82-10.18,0-7.79-.47-10-2.82-10s-2.82,2.19-2.82,10C365.56,40.6,366,43.77,368.38,43.77Z"/><path class="cls-1" d="M325.82,33.69,359.52,0,393.2,33.69,359.52,67.38Zm33.69,31.68L391.2,33.69,359.52,2,327.83,33.69Z"/><path d="M182.8,216h7.06v2.11h-4.77v1.94h4.51v2.11h-4.51v2.11h5v2.11H182.8Z"/><path d="M198.94,218.59a2.22,2.22,0,0,0-1.66-.69c-.65,0-1.54.29-1.54,1.07,0,1.89,4.79.67,4.79,4.31,0,2.32-1.86,3.42-4,3.42A4.93,4.93,0,0,1,193,225.4l1.63-1.79a2.55,2.55,0,0,0,2,1c.75,0,1.59-.35,1.59-1.09,0-1.91-4.87-.88-4.87-4.34,0-2.22,1.92-3.38,4-3.38a4.7,4.7,0,0,1,3.19,1.09Z"/><path d="M206.07,218.07h-3v-2h8.22v2h-3v8.37h-2.29Z"/><path d="M216.39,216h1.89l4.52,10.39h-2.58l-.9-2.2h-4l-.87,2.2H211.9Zm.88,3L216,222.3h2.54Z"/><path d="M226.35,218.07h-3v-2h8.22v2h-3v8.37h-2.29Z"/><path d="M234.69,216h7.06v2.11H237v1.94h4.51v2.11H237v2.11h5v2.11h-7.32Z"/><path d="M257,218.59a2.22,2.22,0,0,0-1.66-.69c-.65,0-1.54.29-1.54,1.07,0,1.89,4.79.67,4.79,4.31,0,2.32-1.86,3.42-4,3.42a4.93,4.93,0,0,1-3.49-1.31l1.63-1.79a2.55,2.55,0,0,0,2,1c.75,0,1.59-.35,1.59-1.09,0-1.91-4.87-.88-4.87-4.34,0-2.22,1.92-3.38,4-3.38a4.7,4.7,0,0,1,3.19,1.09Z"/><path d="M265.55,216h1.89L272,226.44h-2.58l-.9-2.2h-4l-.87,2.2h-2.52Zm.88,3-1.26,3.23h2.54Z"/><path d="M274.93,216h2.29v8.28h4.24v2.11h-6.53Z"/><path d="M284.65,216h7.06v2.11h-4.77v1.94h4.51v2.11h-4.51v2.11h5v2.11h-7.32Z"/><path d="M300.78,218.59a2.22,2.22,0,0,0-1.66-.69c-.65,0-1.54.29-1.54,1.07,0,1.89,4.79.67,4.79,4.31,0,2.32-1.86,3.42-4,3.42a4.93,4.93,0,0,1-3.49-1.31l1.63-1.79a2.55,2.55,0,0,0,2,1c.75,0,1.59-.35,1.59-1.09,0-1.91-4.87-.88-4.87-4.34,0-2.22,1.92-3.38,4-3.38a4.7,4.7,0,0,1,3.19,1.09Z"/><path d="M330.26,176.06c-1.57,1.66-3.41,3.59-6.4,6.37a74.28,74.28,0,0,1-11.43,8.84,23.48,23.48,0,0,0,.88-6.92c-.1-5.84-2.14-21.53,1-35.16l-9.93-3.41c-3.7,8.18-10,20.26-14.22,27.47-7.21,12.37-17.43,20.26-27.08,20.26-12.37,0-7.6-13.25-7.6-13.25,14.32,1.75,22.5-1.85,27.18-11.88,5.84-12.47-.49-20.45-10.52-20.45-15.08,0-25.28,17.08-28.06,30.6-5.76,8.8-11.6,15-15.44,15-1.56,0-4.09-1.07.49-12.47l5.55-13.64c2-5.07,3.12-8.86,3.12-11.69,0-5-3.41-7.79-8.38-7.79-7.69,0-14.22,6.43-14.22,6.43l10.49-26h-12l-18.59,45.94c-6.76,11.43-14.18,17.82-23.07,22.36l19.29-47.43h-12l-2.73,6.62c-.78-4-4.77-7.89-10.62-7.89-11.13,0-19,14-22.9,26.32-6.63,11.09-13.47,19.26-18,19.26-2.34,0-3.7-2.24.39-12.47l12.86-31.85h-12L116,174.9c-4.48,8.28-10.42,17.43-15.58,17.43-1.95,0-3.31-1.56.68-11.3L114,149.18H102L90.48,177.53C83.37,195.26,89,201,96.81,201c5.75,0,10.52-3.7,14.81-8.57.49,6,4.58,8.57,9.74,8.57,6.78,0,13.14-5.06,18.81-12.25,0,.22,0,.45,0,.66,0,6.33,3.41,11.59,9.74,11.59,6.82,0,11.1-6.72,11.1-6.72l-2.82,7.11c-2.14,1.27-7.79,3.51-11.2,5.16-5.26,2.44-10.62,6.53-10.91,12.66-.19,5.55,3.6,9.84,10.72,9.84,10.32,0,15.49-8.77,19.38-18,1.27-3,2.63-6.43,2.63-6.43,5.88-2.8,12.38-6,18.81-11.88l-2.84,7h12l14.12-34.87c4.28-4.87,9-7.11,11.49-7.11,1.56,0,2.73.78,2.73,2.14s-1.56,5.36-3.41,9.84l-3,7.69c-7,17.24-2.53,23.57,6.14,23.57,6.89,0,13.1-4.73,18.77-11.88,1.3,7.68,6.9,11.88,16.55,11.88,16.66,0,28-12.76,34.58-24.45h0c2.24-4,5-9.15,7.5-14.12-.2,6.72.39,13.64.39,18.31,0,9.25-2,11.88-5.65,11.88a5.81,5.81,0,0,1-4.68-2.24l-6.43,4c.39,1,4.68,6.62,14.42,6.62,12.15,0,20.79-7.39,26.77-16.08a36,36,0,0,0,4.51-8.36C332,175.37,331.17,175.09,330.26,176.06Zm-58.84-18.4c3.31,0,3.41,2.73,1.07,7.89s-5.84,9.84-15,8.28C257.49,173.83,263.33,157.66,271.41,157.66Zm-126.2,63.6a2.54,2.54,0,0,1-2.82-2.53c0-2.24,2.34-4.09,4.58-5.45a75.33,75.33,0,0,1,8-3.9C151.55,218.53,147.75,221.17,145.22,221.26Zm20.46-38.38s-5.16,8.38-10.71,8.38c-2.14,0-3.21-1.27-3.21-3.9,0-7.21,8.08-29.42,16.75-29.42,4.68,0,4.68,6.43,4.68,6.43Z"/><path d="M79.47,198.2C77,195.29,71.6,190,71.6,190l25-61.72H84.51l-23,56.78c-4.29-2.24-9.93-5.46-13.73-7.6L67.4,128.3H55.78L38,172.41A40.94,40.94,0,0,0,21,168.32c-13.05,0-21,8.18-21,18.6,0,9.25,7.4,16.85,18.8,16.85,12.76,0,20.06-8.38,25.32-18.12,4.48,2.34,9.64,5.26,14.22,7.4l-7.21,17.82,8.38,8.86,8.57-21.47s6.44,3.56,9.39,5.29c2.42,1.42,5.75,3.53,7.23,4.49.63.4,1.33-.13.8-1.14A56.7,56.7,0,0,0,79.47,198.2ZM19.09,194c-5.16,0-9-3.31-9-7.7s3.51-8.67,10.81-8.67c4.29,0,8.86,1.46,13.34,3.31C30.1,189.95,24.64,194,19.09,194Z"/><path class="cls-1" d="M342.31,150.55l9.12-14.64h4v14.64h3.37v2.94h-3.37V155c0,1.8.31,2.94,1.33,3.13l1.21.2v2.23h-9.31v-2.23l1.1-.2c1-.2,1.29-1.33,1.29-3.13v-1.53h-8.77Zm8.77,0v-8.69l-5.4,8.69Z"/><path class="cls-1" d="M360,148.12c0-7.63,3.44-12.48,8.34-12.48s8.34,4.77,8.34,12.48-2.62,12.68-8.34,12.68S360,155.79,360,148.12Zm8.34,10.18c2.35,0,2.82-3.17,2.82-10.18,0-7.79-.47-10-2.82-10s-2.82,2.19-2.82,10C365.56,155.13,366,158.3,368.38,158.3Z"/><path class="cls-1" d="M325.82,148.22l33.69-33.69,33.69,33.69-33.69,33.69Zm33.69,31.68,31.68-31.68-31.68-31.68-31.68,31.68Z"/></svg>