<svg id="Layer_1" data-name="Layer 1" xmlns="http://www.w3.org/2000/svg" viewBox="0 0 80 80.47"><defs><style>.cls-1{fill:#231e1a;}</style></defs><title>security-hand-icon</title><path class="cls-1" d="M49.3,0A11.12,11.12,0,0,0,38.19,11.11v4.11H37.11a5.8,5.8,0,0,0-5.8,5.8h0V36.37a5.8,5.8,0,0,0,5.8,5.8H61.48a5.8,5.8,0,0,0,5.8-5.8V21a5.8,5.8,0,0,0-5.8-5.8H60.4V11.13A11.12,11.12,0,0,0,49.3,0Zm2.12,29.33v2.81a2.12,2.12,0,1,1-4.24,0h0V29.33a3.46,3.46,0,1,1,4.24,0Zm2-14.09H45.23V11.13a4.11,4.11,0,1,1,8.15,0ZM78.64,49.79,60,71.14a13.06,13.06,0,0,1-9.85,4.47h-28l-4.86,4.85L0,63.57,12.42,51.25A18.93,18.93,0,0,1,32,46.8l2.73,1H51.54A5.29,5.29,0,0,1,56.83,53q0,.08,0,.17a5.44,5.44,0,0,1-5.51,5.08H41.24a2.05,2.05,0,0,0,0,4.11H51.32a9.58,9.58,0,0,0,9.61-9.08v-.13L70.25,42.7A5.64,5.64,0,0,1,78,41.94a5.49,5.49,0,0,1,.74,7.73Z"/></svg>