<svg id="Layer_1" data-name="Layer 1" xmlns="http://www.w3.org/2000/svg" viewBox="0 0 30 30"><defs><style>.cls-1{fill:#03a378;}.cls-2{fill:#fff;}</style></defs><title>step-5</title><circle class="cls-1" cx="15" cy="15" r="15"/><path class="cls-2" d="M10.7,15.15l.5-7.78h8l-.15,2.47H12.79l-.2,3.09a5.46,5.46,0,0,1,3-.82c2.42,0,4.34,1.57,4.34,5.33,0,4-2.32,5.78-4.74,5.78s-5.06-.87-5.06-4c0-1.64.5-2.57,1.82-2.57a1.4,1.4,0,0,1,1.57,1.45,1.81,1.81,0,0,1-.67,1.42,1,1,0,0,0-.37.72,1.85,1.85,0,0,0,1.74,1.15c2,0,2.34-2,2.34-3.84,0-1.22-.32-3.44-2.14-3.44a2.32,2.32,0,0,0-2.12,1.07Z"/></svg>