<svg id="Layer_1" data-name="Layer 1" xmlns="http://www.w3.org/2000/svg" viewBox="0 0 30 30"><defs><style>.cls-1{fill:#03a378;}.cls-2{fill:#fff;}</style></defs><title>step-2</title><circle class="cls-1" cx="15" cy="15" r="15"/><path class="cls-2" d="M10.42,22.51v-1.1a6.72,6.72,0,0,1,2.94-5.83c2.12-1.67,3.12-2.94,3.12-4.81,0-1.25-.6-2.52-2-2.52a2.17,2.17,0,0,0-2.39,1.89.72.72,0,0,0,.67.75,1.21,1.21,0,0,1,1.1,1.35,1.66,1.66,0,0,1-1.67,1.62c-1.32,0-1.84-1.32-1.84-3.07,0-2.62,2.27-4.16,4.71-4.16a4.36,4.36,0,0,1,4.64,4.26,5.58,5.58,0,0,1-3.56,5.53c-1.22.6-3,1.47-3.74,3.12l0,.07a3.33,3.33,0,0,1,2.24-.85A3,3,0,0,1,16,19a4.17,4.17,0,0,0,1.55.4c.77,0,.85-1,.85-2.24h1.47v1.45c0,2.69-1,4-3,4a3.9,3.9,0,0,1-1.92-.55,4.22,4.22,0,0,0-2-.67c-.5,0-.9.35-1,1.07Z"/></svg>