<svg id="Layer_1" data-name="Layer 1" xmlns="http://www.w3.org/2000/svg" viewBox="0 0 30 30"><defs><style>.cls-1{fill:#03a378;}.cls-2{fill:#fff;}</style></defs><title>step-3</title><circle class="cls-1" cx="15" cy="15" r="15"/><path class="cls-2" d="M14.49,14c.9-.12,1.94-.95,1.94-2.84s-.62-2.94-2.32-2.94A2.09,2.09,0,0,0,11.85,10a.69.69,0,0,0,.65.72,1.31,1.31,0,0,1,1.07,1.37,1.65,1.65,0,0,1-1.69,1.62c-1.27,0-1.77-1.15-1.77-2.89,0-2.62,2.52-4.16,4.66-4.16,2.39,0,4.93,1.25,4.93,4.19a3.84,3.84,0,0,1-1.92,3.51v.07a3.94,3.94,0,0,1,2.12,3.71,4.33,4.33,0,0,1-4.56,4.54c-2.54,0-5.23-.87-5.23-4,0-1.55.52-2.59,1.82-2.59a1.4,1.4,0,0,1,1.6,1.37,1.89,1.89,0,0,1-.75,1.5.86.86,0,0,0-.45.65c0,.45.75,1.22,2,1.22a2.2,2.2,0,0,0,2.24-2.52c0-2.47-1-2.74-2.07-2.74Z"/></svg>